<svg xmlns="http://www.w3.org/2000/svg" viewBox="10 10 122 122"><path d="M128 117v6a5 5 0 0 0-5 5h-6a5 5 0 1 0-10 0h-6a5 5 0 1 0-10 0h-6a5 5 0 1 0-10 0h-6a5 5 0 1 0-10 0h-6a5 5 0 1 0-10 0h-6a5 5 0 1 0-10 0h-6a5 5 0 1 0-10 0H5a5 5 0 0 0-5-5v-6a5 5 0 1 0 0-10v-6a5 5 0 0 0 0-10v-6a5 5 0 0 0 0-10v-6a5 5 0 0 0 0-10v-6a5 5 0 0 0 0-10v-6a5 5 0 0 0 0-10v-6a5 5 0 0 0 0-10V5a5 5 0 0 0 5-5h6a5 5 0 0 0 10 0h6a5 5 0 0 0 10 0h6a5 5 0 0 0 10 0h6a5 5 0 0 0 10 0h6a5 5 0 0 0 10 0h6a5 5 0 0 0 10 0h6a5 5 0 1 0 10 0h6a5 5 0 0 0 5 5v6a5 5 0 1 0 0 10v6a5 5 0 1 0 0 10v6a5 5 0 1 0 0 10v6a5 5 0 1 0 0 10v6a5 5 0 1 0 0 10v6a5 5 0 1 0 0 10v6a5 5 0 1 0 0 10z"/></svg>