<svg xmlns="http://www.w3.org/2000/svg" viewBox="5.3 16.5 33.8 9.8"><path d="M6.58975701,16.933653 C7.48262315,16.5002952 8.55774272,16.8728033 8.99110046,17.7656742 L10.2482895,20.355923 L11.5258674,17.7574558 C11.9637289,16.8668024 13.0407296,16.4997707 13.9314061,16.9376667 C14.8220233,17.3755627 15.1890936,18.4525633 14.7511727,19.3432161 L11.8505697,25.2429126 C11.5475854,25.8591469 10.9199581,26.2488253 10.2333005,26.2471101 C9.54664883,26.2453243 8.92101532,25.8524416 8.62119378,25.2347239 L5.75773577,19.3349976 C5.32437802,18.4421315 5.69688613,17.3670119 6.58975701,16.933653 Z M19.4343748,16.7532934 C20.1210443,16.7550465 20.7466541,17.1479328 21.0464934,17.7656742 L23.9099502,23.6653886 C24.1802388,24.2223433 24.1448728,24.8791653 23.8163135,25.4038397 C23.4877541,25.9284547 22.9122857,26.2471044 22.2932625,26.2471044 L16.5291434,26.2471044 C15.9085181,26.2471044 15.3317442,25.9267932 15.0036596,25.3999233 C14.6756343,24.8730534 14.6426419,24.2141545 14.9164908,23.6571998 L17.8171531,17.7574558 C18.120078,17.1412495 18.7477053,16.7515521 19.4343748,16.7532934 Z M25.9890658,18.5503359 C25.9890658,17.5578576 26.7936416,16.7532934 27.7860843,16.7532934 L30.3291112,16.7532934 C30.3790152,16.7532934 30.4288598,16.7553724 30.4786452,16.7595248 L31.1933819,16.8192019 C31.4080106,16.8371253 31.7879575,16.888381 32.1876641,17.0996879 C34.2690939,18.2000823 34.2690939,21.2062313 32.1876641,22.3066233 C31.7879575,22.517929 31.4080106,22.5691859 31.1933819,22.5871122 L30.4786452,22.6467893 C30.4288598,22.6509371 30.3790152,22.6530199 30.3291112,22.6530199 L29.5831622,22.6530199 L29.5831622,24.4500859 C29.5831622,25.4425286 28.7785863,26.2471044 27.7860843,26.2471044 C26.7936416,26.2471044 25.9890658,25.4425286 25.9890658,24.4500859 L25.9890658,18.5503359 Z M37.2799485,16.7532934 C38.2723912,16.7532934 39.076967,17.5578576 39.076967,18.5503359 L39.076967,24.4500859 C39.076967,25.4425286 38.2723912,26.2471044 37.2799485,26.2471044 C36.2874464,26.2471044 35.4828706,25.4425286 35.4828706,24.4500859 L35.4828706,18.5503359 C35.4828706,17.5578576 36.2874464,16.7532934 37.2799485,16.7532934 Z" fill-rule="evenodd"/></svg>